<svg width="28" height="28" viewBox="0 0 28 28" fill="none" xmlns="http://www.w3.org/2000/svg">
<path fill-rule="evenodd" clip-rule="evenodd" d="M13.5 10.5C10.6494 10.5 8.5 13.2848 8.5 16.5C8.5 19.7152 10.6494 22.5 13.5 22.5C16.3506 22.5 18.5 19.7152 18.5 16.5C18.5 13.2848 16.3506 10.5 13.5 10.5ZM10.5 16.5C10.5 14.0028 12.1045 12.5 13.5 12.5C14.8955 12.5 16.5 14.0028 16.5 16.5C16.5 18.9972 14.8955 20.5 13.5 20.5C12.1045 20.5 10.5 18.9972 10.5 16.5Z" fill="black"/>
<path fill-rule="evenodd" clip-rule="evenodd" d="M13.5 0C9.5718 0 6.34913 3.01978 6.02654 6.86481C3.96432 7.65786 2.5 9.65733 2.5 12V22C2.5 25.0376 4.96243 27.5 8 27.5H19C22.0376 27.5 24.5 25.0376 24.5 22V12C24.5 9.65733 23.0357 7.65786 20.9735 6.86481C20.6509 3.01979 17.4282 0 13.5 0ZM13.5 2C10.804 2 8.56069 3.94008 8.09062 6.5H18.9094C18.4393 3.94008 16.196 2 13.5 2ZM4.5 12C4.5 10.067 6.067 8.5 8 8.5H19C20.933 8.5 22.5 10.067 22.5 12V22C22.5 23.933 20.933 25.5 19 25.5H8C6.067 25.5 4.5 23.933 4.5 22V12Z" fill="black"/>
</svg>
