<svg width="28" height="28" viewBox="0 0 28 28" fill="none" xmlns="http://www.w3.org/2000/svg">
<path fill-rule="evenodd" clip-rule="evenodd" d="M14 0C10.6863 0 8 2.68629 8 6C8 7.88423 8.86867 9.56507 10.226 10.6646C6.01003 12.2046 3 16.2502 3 21V24C3 26.2091 4.79086 28 7 28H21C23.2091 28 25 26.2091 25 24V21C25 16.2502 21.99 12.2046 17.774 10.6646C19.1313 9.56507 20 7.88423 20 6C20 2.68629 17.3137 0 14 0ZM10 6C10 3.79086 11.7909 2 14 2C16.2091 2 18 3.79086 18 6C18 8.20914 16.2091 10 14 10C11.7909 10 10 8.20914 10 6ZM5 21C5 16.0294 9.02944 12 14 12C18.9706 12 23 16.0294 23 21V24C23 25.1046 22.1046 26 21 26H7C5.89543 26 5 25.1046 5 24V21Z" fill="black"/>
</svg>
